<?xml version="1.0" encoding="utf-8"?>
<!-- Generated by IcoMoon.io -->
<!DOCTYPE svg PUBLIC "-//W3C//DTD SVG 1.1//EN" "http://www.w3.org/Graphics/SVG/1.1/DTD/svg11.dtd">
<svg version="1.1" xmlns="http://www.w3.org/2000/svg" xmlns:xlink="http://www.w3.org/1999/xlink" width="81" height="100" viewBox="0 0 81 100">
<path class="md-raised" d="M4.179 8.016l-0.136 0.703c0.019 0.007 1.918 0.779 3.41 2.419 0.492 0.541 0.472 3.514 0.3 5.451l-0.002 72.502c0.002 0.041 0.068 2.989-0.817 4.547-2.556 4.514-6.889 5.63-6.934 5.643l0.088 0.718h80.804l0.149-0.698c-0.052-0.024-5.091-2.262-6.614-4.14-0.93-1.144-0.908-3.434-0.876-7.224 0.036-4.099 0.085-9.717-0.934-17.746-2.517-19.819-24.881-26.026-25.105-26.087l-0.138-0.036-4.056 2.107 0.188 0.687c0.025-0.001 2.621 0.008 7.618 5.257-0.178-0.002-0.889-0.012-0.889-0.012h-21.050l2.654 2.206c1.045 0.976 1.064 2.439 1.064 2.541 0 0.002 0 34.391 0 35.104-0.66 0-9.814 0-10.473 0 0-0.721 0-76.114 0-76.114 0-0.028 0.014-2.951 1.010-4.081 1.416-1.606 3.81-3.055 3.834-3.070l1.124-0.678zM25.881 8.746c-0.863 0.594-2.073 1.499-2.986 2.535-1.178 1.337-1.192 4.434-1.192 4.564v76.845h11.932c0 0 0-35.832 0-35.847 0-0.23-0.046-1.892-1.296-3.061 0 0-0.6-0.498-1.135-0.944 1.721 0 16.293 0 18.022 0-0.795 0.654-1.911 1.577-1.911 1.577-0.6 0.602-0.737 1.35-0.737 1.91 0 0.445 0.089 0.765 0.097 0.796l-0.015 35.569h12.050v-26.233c-0.066-0.412-1.497-8.789-6.466-14.232-3.782-4.143-6.338-5.454-7.677-5.878 1.029-0.534 2.704-1.405 2.889-1.5 1.403 0.404 22.056 6.669 24.437 25.437 0.816 6.418 0.944 11.291 0.944 15.076 0 0.918-0.007 1.776-0.016 2.573-0.004 0.653-0.011 1.267-0.011 1.838 0 2.879 0.139 4.727 1.052 5.85 1.106 1.364 3.746 2.816 5.421 3.648-3.024 0-73.941 0-77.366 0 1.6-0.757 3.932-2.233 5.652-5.272 0.846-1.492 0.914-3.953 0.914-4.699 0-0.122-0.002-72.678-0.002-72.678 0.033-0.363 0.117-1.428 0.117-2.573 0-1.376-0.121-2.868-0.605-3.399-0.779-0.857-1.64-1.477-2.337-1.903 2.441 0 18.205 0 20.226 0zM47.389 57.021c-0.008-0.050-0.078-0.329-0.078-0.69 0-0.431 0.1-0.979 0.521-1.4 0 0 3.238-2.675 3.342-2.76 0.182 0.194 0.344 0.34 0.533 0.549 4.817 5.277 6.263 13.71 6.276 13.796 0 0-0.004 24.736-0.004 25.444-0.66 0-9.932 0-10.592 0 0-0.713 0-34.938 0-34.938z"></path>
<path class="md-raised" d="M3.978-0.005v7.096h28.428c0.099 0 10.012 0.022 14.913 2.773 3.981 2.237 5.527 5.142 5.98 6.169-1.024 0-16.3 0.018-16.703 0.019-0.276-0.347-0.447-1.648-0.447-2.8 0-0.029 0.001-0.058 0.001-0.086l-0.696-0.156-6.29 13.529 0.59 0.41 2.841-2.465c1.669-1.198 3.153-1.124 3.167-1.122 0 0 17.067 0 17.945 0-0.405 1.569-2.312 7.431-9.264 12.788-8.427 6.495-14.561 9.192-14.622 9.22l-0.22 0.094v5.376l2.954-1.344c1.45-0.589 35.822-14.757 34.244-32.581-1.359-15.373-31.911-16.864-33.209-16.92l-29.249-0.001zM33.574 0.725c0.296 0.012 31.199 1.516 32.5 16.255 0.035 0.371 0.051 0.739 0.051 1.106 0 16.792-33.511 30.6-33.856 30.74-0.009 0.004-1.224 0.555-1.938 0.88 0-0.817 0-3.403 0-3.769 1.037-0.476 6.82-3.247 14.556-9.211 8.306-6.4 9.59-13.374 9.64-13.668l0.073-0.427h-18.815c-0.046-0.003-1.721-0.1-3.614 1.259 0 0-0.841 0.728-1.627 1.41 1.001-2.155 4.075-8.763 4.953-10.655 0.083 0.819 0.25 1.691 0.643 2.043l0.104 0.092 18.113-0.020-0.157-0.478c-0.055-0.168-1.42-4.186-6.525-7.053-5.067-2.845-14.855-2.867-15.269-2.867 0 0-26.988 0-27.698 0 0-0.608 0-5.030 0-5.638 0.711 0 28.868 0 28.868 0z"></path>
<path class="md-raised" d="M6.542 4.839l0.159-2.357 26.724-0.156c0 0 30.962 0.636 30.811 16.35-0.14 14.996-29.239 27.982-29.239 27.982l-2.691 1.218-0.315-1.256c0 0 11.528-6.537 16.056-10.338 7.958-6.686 7.859-14.778 7.859-14.778h-18.394c0 0-1.728 0-2.988 0.472-1.433 0.538-1.785 1.021-1.785 1.021l2.414-5.581c0 0-0.313 0.787 1.415 1.101 0.931 0.17 2.831 0 2.831 0l16.506-0.156c0 0 0.313-6.918-9.354-10.926-5.305-2.198-14.542-2.596-14.542-2.596h-25.468z"></path>
<path class="md-raised" d="M10.001 91.775c0 0-0.156 2.203-0.627 2.987-0.473 0.786-2.211 2.672-2.211 2.672h66.035c0 0-2.513-1.413-2.513-2.987s0.903-21.926-1.26-27.512c-6.442-16.663-21.376-20.278-21.376-20.278s5.028 3.142 8.802 9.746c3.36 5.883 3.29 12.408 3.29 12.408v25.166h-15.239v-39.776h-9.589v39.776h-14.799v-83.174l-10.513-0.011v80.982z"></path>
</svg>
